<?xml version="1.0" standalone="no"?><!DOCTYPE svg PUBLIC "-//W3C//DTD SVG 1.1//EN" "http://www.w3.org/Graphics/SVG/1.1/DTD/svg11.dtd"><svg t="1705328649984" class="icon" viewBox="0 0 1024 1024" version="1.1" xmlns="http://www.w3.org/2000/svg" p-id="6456" xmlns:xlink="http://www.w3.org/1999/xlink" width="32" height="32"><path d="M624.375393 840.051501c-125.609813 88.36249-295.736515 73.492828-404.520103-35.303041-110.134353-110.173239-124.039038-281.673218-33.051767-407.788543 10.089799-13.980409 6.934946-33.493835-7.046486-43.586704-13.975293-10.097986-33.488719-6.947226-43.573401 7.048533-109.006669 151.087067-92.384084 356.522949 39.534412 488.481354 73.39459 73.411987 170.102143 111.098307 267.485077 111.098307 75.477019 0 151.36643-22.654976 217.07906-68.868507 14.103206-9.91993 17.496489-29.393447 7.579629-43.499723C657.945977 833.516668 638.4786 830.131571 624.375393 840.051501z" fill="#e6e6e6" p-id="6457"></path><path d="M959.12648 89.744977c-0.183172-0.919952-0.527003-1.772366-0.788969-2.662643-0.311085-1.060145-0.555655-2.133593-0.981351-3.163039-0.441045-1.063215-1.043772-2.029216-1.594311-3.028986-0.428765-0.779759-0.769526-1.592264-1.2689-2.340301-2.288113-3.426029-5.229095-6.370081-8.654101-8.659217-0.765433-0.511653-1.595334-0.862647-2.39249-1.298576-0.983397-0.540306-1.930979-1.1328-2.974751-1.566682-1.038656-0.429789-2.122337-0.678452-3.192715-0.991584-0.881067-0.258896-1.722224-0.599657-2.632967-0.780783-2.910283-0.579191-5.872754-0.61296-8.819876-0.357134-0.862647-0.071631-1.691525-0.25992-2.572592-0.25992L700.929953 64.636113c-17.237593 0-31.212886 13.980409-31.212886 31.222095s13.975293 31.222095 31.212886 31.222095l152.250566 0L687.421288 292.8907c-132.484384-112.053052-329.144392-120.017444-469.979978-15.001669-13.818727 10.305717-16.673751 29.865191-6.371104 43.693128 10.292414 13.82282 29.841655 16.678868 43.679825 6.372128 124.557854-92.88448 301.497729-79.900771 411.56659 30.200836 109.875456 109.904109 122.988102 286.714024 30.491455 411.273924-10.282181 13.843286-7.396457 33.402761 6.441713 43.682895 5.593392 4.15667 12.121062 6.15928 18.588357 6.15928 9.540284 0 18.959817-4.355191 25.081235-12.603039 104.566544-140.816143 96.449679-337.313445-15.363919-469.626937L897.316739 171.232896l0 147.016355c0 17.242709 13.975293 31.222095 31.212886 31.222095s31.212886-13.980409 31.212886-31.222095L959.742511 95.859231C959.743534 93.809549 959.527616 91.762937 959.12648 89.744977z" fill="#e6e6e6" p-id="6458"></path><path d="M397.125693 486.328317c7.985882 0 15.972786-3.049452 22.068621-9.142218l21.535479-21.536502c12.192693-12.19167 12.192693-31.958876 0.005117-44.155662-12.187577-12.196787-31.94455-12.19167-44.142359-0.005117l-21.535479 21.536502c-12.192693 12.19167-12.192693 31.958876-0.005117 44.155662C381.14779 483.279888 389.134695 486.328317 397.125693 486.328317z" fill="#e6e6e6" p-id="6459"></path><path d="M591.455633 649.499607l21.535479-21.536502c12.192693-12.19167 12.192693-31.958876 0.005117-44.155662-12.187577-12.19167-31.94455-12.196787-44.142359-0.005117l-21.535479 21.536502c-12.192693 12.19167-12.192693 31.959899-0.005117 44.155662 6.096858 6.097882 14.08274 9.147334 22.073738 9.147334C577.372893 658.641825 585.358775 655.592372 591.455633 649.499607z" fill="#e6e6e6" p-id="6460"></path><path d="M338.748121 569.379848c-4.831029 20.683065-4.673439 64.014966 26.544563 95.238085 22.769586 22.781866 52.184523 29.179576 74.446549 29.179576 8.102538 0 15.265682-0.848321 20.808932-2.062985 16.84055-3.694135 27.499307-20.342304 23.811312-37.183877-3.698229-16.845667-20.341281-27.517727-37.172621-23.818475-0.23843 0.051165-23.196305 4.293793-37.751812-10.269901-14.122649-14.122649-10.119475-35.700083-9.819646-37.199227 3.708462-16.683984-6.690376-33.286104-23.369244-37.183877C359.485421 542.156834 342.670453 552.59558 338.748121 569.379848z" fill="#e6e6e6" p-id="6461"></path></svg>