<svg t="1703158870337" class="icon" viewBox="0 0 1127 1024" version="1.1" xmlns="http://www.w3.org/2000/svg" p-id="79584" width="32" height="32"><path d="M284.823394 649.795357c7.948987 0 7.948987-12.326741 0-12.326741s-7.948987 12.326741 0 12.326741zM325.325544 648.914875c15.897974 0 15.897974-24.653482 0-24.653482s-15.897974 24.653482 0 24.653482z" fill="#bfbfbf" p-id="79585"></path><path d="M18.917977 5.282889c3.407463 0 3.407463-5.282889 0-5.282889s-3.407463 5.282889 0 5.282889zM332.369396 653.317283c3.407463 0 3.407463-5.282889 0-5.282889s-3.407463 5.282889 0 5.282889zM589.469998 674.88908c51.342638-0.20075 101.859384-11.238466 141.572622-45.434607 19.467446-16.764368 32.560206-38.112523 35.969431-63.642965 1.66411-12.462335 1.62713-25.415979 1.197455-37.962841-0.05459-1.623608 0.711429-7.193534-0.318734-0.186662 0.29232-1.981083 0.619859-3.955123 0.887525-5.939728 1.063622-7.852134 1.90184-14.888942-0.461372-22.688248-9.473981-31.278225-48.660691-24.535498-72.852802-19.141668-12.307371 2.745341-24.170979 6.702225-36.60866 9.010848-12.719436 2.35969-25.373716 4.576743-37.624736 8.840034-25.616729 8.915756-53.570256 26.189042-59.726583 54.596898-2.666098 12.296805-0.449046 25.130703-0.685015 37.582473-0.276471 14.642408-1.75568 29.216138-1.57254 43.876155 0.306408 24.503801 3.615257 49.178414 5.5576 73.595927 1.947625 24.489713 3.463814 49.018167 3.536013 73.592406 0.100375 34.062308 52.929266 34.072874 52.828891 0-0.082765-27.957049-2.077936-55.833094-4.349578-83.682724-2.271642-27.861957-5.643887-55.773221-4.303794-83.756684 0.628664-13.131501 1.653544-26.250676 0.96853-39.403309-0.132072-2.521699-0.355715-5.038115-0.484265-7.561575-0.059873-1.156953 1.125255-7.941943-0.015849-2.678425-0.739604 3.409224 1.598954-2.861565 2.030391-3.527209-3.034139 4.668313 6.101737-4.703532 1.51795-1.271415 18.773627-14.057768 41.703126-16.271298 65.398645-20.994201 12.085489-2.408997 23.621558-6.876561 35.800378-8.882298 0.801238-0.132072 7.994772-1.111168 2.197682-0.376846 2.493524-0.315212 4.997613-0.503635 7.505224-0.670927 2.32271-0.154965 4.638377-0.102136 6.962848 0-7.580946-0.302886-13.105087-4.84617-16.574184-13.629854-0.487787-4.265052-0.732561-4.858497-0.736083-1.778572 0.325778-7.123095 0.110941-0.716712-0.135594 0.847023-0.568791 3.595887-1.019598 7.209383-1.449272 10.822879-0.649795 5.458985 0.082765 11.2279 0.022892 16.725627-0.072199 6.459212-0.371563 12.930752-0.741365 19.381159-0.477221 8.345204 1.046012-4.506304-0.62162 3.194387-0.250057 1.155192-3.608213 10.127298-1.276698 4.923652-0.952681 2.127243-2.15718 4.13298-3.34583 6.131673-0.301125 0.503635-4.803907 6.686377-1.396444 2.366735-3.141558 3.985059-6.755054 7.596794-10.370311 11.145135-2.009259 1.972279-4.118893 3.817768-6.251419 5.654452-6.723357 5.790046 3.523687-2.361451-3.617018 2.757668-5.281128 3.78431-10.954951 6.996306-16.720344 9.970573-16.269537 8.390989-40.827928 13.203701-59.214143 14.603666-7.484093 0.568791-14.996361 0.734322-22.498063 0.764258-34.062308 0.132072-34.076396 52.960963-0.001761 52.82713z" p-id="79586" fill="#bfbfbf"></path><path d="M566.702507 765.222961c-35.52919-24.049472-78.653414-32.34713-120.643577-24.563673-38.494652 7.135422-76.663525 33.442449-89.853139 71.16756-4.7546 13.599917 5.279367 28.870989 18.44961 32.491529 14.594862 4.014996 27.745733-4.870824 32.49329-18.44961 1.035446-2.88974 1.058339-3.013008 0.063395-0.373324 0.729039-1.461599 1.519711-2.88974 2.373778-4.280901a62.426139 62.426139 0 0 1 2.768234-4.125937c-1.551408 2.037434-1.329527 1.861338 0.665644-0.531811 2.262837-2.583333 4.812712-4.906043 7.371391-7.190012 2.412519-1.972279 2.653771-2.217052 0.725517-0.73256a106.31286 106.31286 0 0 1 4.222789-2.967223c2.787604-1.908884 5.726652-3.585321 8.678026-5.224777 0.920984-0.51244 9.96529-4.666552 4.520392-2.423085 7.843329-3.234889 16.061744-5.400874 24.387577-6.945238 3.277152-0.540616 3.771983-0.612815 1.482731-0.21836a125.412265 125.412265 0 0 1 5.689671-0.442002c3.791353-0.250057 7.595034-0.195467 11.388148-0.102135 1.016076 0.024653 10.845771 0.852306 7.135422 0.34867 3.759656 0.510679 7.475288 1.303113 11.173311 2.130765 16.142748 3.618779 25.997097 8.401555 40.243288 18.044589 11.94109 8.08282 29.226703 2.324471 36.140244-9.477503 7.640819-13.03817 2.423085-28.082077-9.475742-36.134962z" p-id="79587" fill="#bfbfbf"></path><path d="M358.868368 805.077077c-11.293056 20.194724-13.386841 43.147116-14.045442 65.858256-0.628664 21.65104 4.127697 41.969032 12.747612 61.71471 8.385706 19.206824 27.960571 35.573214 46.433073 44.599911 6.746249 2.854521 8.410359 3.557145 4.994091 2.100828 2.662576 1.142865 5.305782 2.331515 7.963075 3.484946 6.39934 2.780561 12.811006 5.548794 19.514992 7.508747 12.900815 3.768461 27.650641 3.830095 40.951195 2.727731 23.468354-1.944103 45.316623-8.917517 66.81622-18.150246 9.880764-4.24216 18.439044-10.162518 26.719092-16.977444 9.141159-7.522834 14.94001-18.474263 21.277717-28.265218 6.626504-10.236478 12.531013-20.539873 17.111277-31.869908 5.242387-12.973015 6.135195-26.77016 7.248124-40.597242 2.074414-25.796347 1.975801-51.721245 0.604011-77.54929-0.764258-14.37298-11.437455-26.414445-26.414446-26.414445-14.399395 0-26.414445 12.015051-26.414445 26.414445v8.364575c0 34.067591 52.828891 34.067591 52.828891 0v-8.364575h-52.828891c1.13406 21.330545 1.306635 42.659329 0.269427 63.998679-0.399739 8.214893-1.084753 20.890304-1.981083 26.447904-1.581345 9.813847-4.414734 13.930979-9.750453 22.927739-4.446432 7.49642-9.426435 14.670583-13.98909 22.098325-1.7187 2.521699-1.771529 2.65201-0.162008 0.390934-1.547887 1.849011-3.3652 3.460292-5.1561 5.064529 2.181833-1.574301 2.01102-1.465121-0.51244 0.324017-2.046239 1.438707-4.233355 2.674903-6.404623 3.91286-11.072936 6.320096-27.085372 11.367016-43.879677 14.626559-14.374741 2.789365-32.297823 0.817087-44.538277-4.57146-1.3894-0.612815-14.526184-6.630026-10.211824-4.520392a67.024014 67.024014 0 0 1-5.00994-2.88974c0.456089 0.276471-7.029764-5.159622-3.993864-2.717166-3.761417-3.025334-7.269255-6.374686-10.780616-9.681775-1.86486-2.129004-1.748636-1.900079 0.352193 0.686776-1.289025-1.766246-2.34032-3.705066-3.398659-5.61219a72.805255 72.805255 0 0 1-2.044478-4.161155c1.095319 2.648488 1.077709 2.516416-0.052829-0.399739-1.452794-3.872358-2.534026-7.876788-3.543057-11.881217a120.360062 120.360062 0 0 1-1.053056-4.805668c-0.172574-0.832936-1.283742-8.72205-0.503636-2.32095-0.424392-3.484946-0.542377-6.994545-0.508918-10.500622 0.084526-8.980911 0.514201-17.979433 1.468643-26.909276-0.3293 2.440695-0.23773 2.044478 0.276471-1.186889 0.463133-2.692512 1.137582-5.335718 1.829641-7.975402 0.478982-1.722222 1.021359-3.421551 1.62713-5.103271-1.540843 4.539763 1.584867-2.850999 1.759202-3.16445 7.028003-12.569754 3.111622-28.765331-9.475742-36.138484-12.238693-7.170641-29.121046-3.074641-36.138483 9.475743zM268.974727 477.22098c3.407463 0 3.407463-5.282889 0-5.282889s-3.407463 5.282889 0 5.282889z" p-id="79588" fill="#bfbfbf"></path><path d="M329.85298 650.760365c-3.65752-1.944103-7.128378-4.189331-10.53232-6.543739a184.652822 184.652822 0 0 1-6.189785-4.518631c7.470005 5.643887-1.866621-1.570779-3.653998-3.049988-11.020107-9.132354-21.374569-19.07123-31.281748-29.390473a401.62812 401.62812 0 0 1-15.262266-16.887635 370.330525 370.330525 0 0 1-7.355543-8.896386c-0.774824-0.963247-4.816234-6.188024-0.605771-0.707907a311.211474 311.211474 0 0 1-4.569699-6.135195c-8.917517-12.199952-16.894679-25.162401-23.072138-38.968351 3.388093 7.575663-0.845262-2.465348-1.514428-4.40769-1.014315-2.94433-1.834923-5.950294-2.569245-8.975629-0.353954-1.452794-0.628664-2.923199-0.903374-4.393603-1.016076-5.44842 0.729039 6.702225 0.160248 1.27846-0.336344-3.21904-0.327539-6.459212-0.132073-9.685297 0.316973-5.235343-1.141104 6.850146-0.264144 1.729266 0.221881-1.296069 0.556464-2.569245 0.891047-3.840661 0.334583-1.264371 0.783629-2.495285 1.232674-3.720915-2.806975 7.66195-1.438707 3.407463-0.470177 1.547887 0.616337-1.179845 1.345376-2.298057 2.072654-3.410985 2.81578-4.310837-4.182287 5.002896-0.773063 1.02488 0.926267-1.081231 1.952908-2.070893 2.976028-3.058793 5.10151-4.930696-3.300045 2.13957 0.524767-0.600488 1.445751-1.035446 2.977788-1.933537 4.506304-2.835151 5.976709-3.525448-5.055725 1.607759 1.581345-0.811804 2.100829-0.766019 4.287945-1.285503 6.457451-1.815552 0.838218-0.204272 8.332877-1.384117 2.185355-0.598728 10.873947-1.3894 21.989145-0.928028 32.912399-0.535333 22.51039 0.811804 45.175745 2.067371 66.987034-4.751078 31.885758-9.968812 61.395976-27.203357 89.277303-45.265555 25.694212-16.646383 48.762827-35.613716 70.200791-57.449657 19.567821-19.93058 37.846617-41.079745 57.622232-60.814858 9.570834-9.551463 19.580148-18.648598 30.093098-27.152289 2.474153-1.954669 2.83515-2.245228 1.081231-0.871677 1.447512-1.093558 2.905589-2.173028 4.377754-3.23665 2.942569-2.151897 5.964382-4.194614 8.998521-6.2162 6.154566-4.103044 12.567993-7.802827 19.0906-11.28249 12.691261-6.769142 16.537204-24.088213 9.477503-36.140244-7.482332-12.770504-23.434896-16.251928-36.138483-9.475742-41.565771 22.168764-74.376034 56.107804-106.02054 90.309228-15.276354 16.509028-30.598494 32.981077-47.243116 48.137685-8.836512 8.04584-14.857245 12.934273-22.607243 18.203075-11.3001 7.681321-22.760447 15.12139-34.440915 22.21631-21.564753 13.098043-42.176825 24.59361-65.530717 30.316739-0.894569 0.22012-8.278287 1.359463-2.046239 0.570552-2.386105 0.301125-4.79158 0.443763-7.190012 0.596967-5.024028 0.320495-10.070948 0.271188-15.100258 0.20251-11.305383-0.158487-22.594917-0.91394-33.902061-1.058338-21.455574-0.276471-44.640413 2.213531-62.559972 15.054472-13.982046 10.018119-24.463298 23.311629-28.907969 40.149957-11.907632 45.107068 20.030954 90.981916 46.49999 124.242986 13.374514 16.806631 28.323329 32.410525 44.25124 46.809919 12.450009 11.256076 25.821001 22.823842 40.715226 30.73761 12.715914 6.756815 28.650868 3.31061 36.140244-9.477503 7.052657-12.046748 3.226084-29.399278-9.475742-36.147288z" p-id="79589" fill="#bfbfbf"></path><path d="M721.565117 919.159305c24.947563 9.776867 50.497376 18.137919 76.675852 23.93501 31.493063 6.973414 66.04844 11.314187 97.60842 2.303339 14.961142-4.273857 29.688076-12.50812 39.884052-24.410469 13.427343-15.672571 18.68734-33.947845 20.678988-54.170745 2.588616-26.27709-5.534707-53.300829-10.326287-78.910514-1.963474-10.486535-2.636162-20.37082-2.676663-33.007491-0.045785-14.15286-0.248296-28.303959-0.139117-42.456818 0.20075-26.176715 1.95643-49.694377 7.197056-74.296792 5.0839-23.88042 13.573503-46.94023 22.193417-69.725331 17.665981-46.700739 36.237097-93.56877 36.080372-144.333812-0.294081-95.988334-76.30605-163.434979-156.070631-203.19048-43.518679-21.689782-88.726122-40.50215-138.376475-36.02226-19.495622 1.759202-39.015897 5.180753-57.771914 10.82464-17.868492 5.377981-37.885359 13.36747-50.511463 27.761582-9.488069 10.814074-10.674958 26.682112 0 37.355309 9.678253 9.680014 27.853152 10.829923 37.355308 0a50.021916 50.021916 0 0 1 3.247216-3.363439c4.228072-4.00443-4.983525 3.45677 0.033458-0.061634 3.129231-2.195921 6.550782-3.965689 9.968812-5.657974 0.961486-0.477221 7.313279-3.118666 1.354181-0.690298 2.03039-0.827653 4.097761-1.560213 6.161609-2.294535 5.025788-1.790899 10.16604-3.250738 15.320379-4.620767 8.913995-2.372017 17.99352-4.108327 27.102982-5.532946 7.353782-1.149909-5.587536 0.660361 1.59191-0.228925 2.046239-0.253579 4.096-0.45785 6.147522-0.660361 4.275618-0.422631 8.563563-0.672688 12.858552-0.806521 22.9295-0.71319 44.994366 5.673823 67.846384 14.911835 17.296179 6.992784 39.836506 18.673252 58.088887 29.263684 8.896385 5.159622 17.537431 10.743635 25.970683 16.623491 9.843783 6.864234 12.633149 9.153486 22.533283 18.009368 17.120083 15.309813 26.278851 26.252437 36.768908 44.131495 2.481197 4.229833 4.685923 8.616392 6.783229 13.046975 3.442683 7.276299-1.794421-4.7546 1.200977 2.741819 0.917462 2.298057 1.723983 4.638377 2.530504 6.975175 1.632413 4.733469 2.912633 9.576117 4.071346 14.443419 0.588162 2.472392 1.051295 4.97296 1.514428 7.470005 0.484265 3.166212 0.554703 3.372244 0.207794 0.616337 0.216598 1.723983 0.403261 3.453248 0.561747 5.186036 2.509372 25.167684-0.551181 43.309125-6.603611 66.634841-12.280956 47.343491-35.013228 91.235494-47.107522 138.661751-6.716313 26.329919-9.732843 53.756918-10.743635 80.863422-0.980856 26.38627-1.908884 53.934776 0.685014 80.224192 1.343615 13.62281 3.953362 27.083611 6.682855 40.481018 2.65201 13.020561 4.897238 24.170979 5.594579 35.051969 0.373324 5.83231 0.135594 11.661097-0.436718 17.468754 0.540616-5.480117-1.181606 4.587309-1.679959 6.357076-0.452567 1.604237-1.030163 3.167972-1.607759 4.729947 2.634401-7.100203 0.855828-2.136048 0.042263-0.531811-0.690298 1.361224-1.49858 2.659054-2.305101 3.951601-3.78431 6.061235 2.565723-2.83339-0.322256 0.537094-1.880709 2.195921-4.046693 4.129458-6.277833 5.957338 6.756815-5.536468-1.084753 0.271188-3.143319 1.392921-1.294308 0.704385-2.641445 1.313678-3.98506 1.924733 7.299192-3.315893 2.417802-1.088275 0.702625-0.486026-3.430356 1.208021-6.980457 2.058566-10.535842 2.801692-1.577823 0.331061-3.173255 0.579357-4.763405 0.832936 8.047601-1.274937 2.208248-0.327539 0.466655-0.154965-3.391615 0.332822-6.800839 0.463133-10.206542 0.540616-7.749998 0.176096-15.510562-0.348671-23.214775-1.141104-1.595433-0.165531-10.106167-1.33481-2.141331-0.211316a281.80163 281.80163 0 0 1-7.362587-1.165757c-4.91837-0.827653-9.808564-1.820836-14.68467-2.873892-10.125537-2.187116-20.141895-4.874346-30.073727-7.802827-15.771185-4.650703-31.295835-10.134342-46.602125-16.130421-13.423821-5.259997-28.974886 5.663257-32.491529 18.449609-4.122414 14.971708 5.053964 27.231532 18.449609 32.479202z" p-id="79590" fill="#bfbfbf"></path><path d="M960.275982 340.661819c57.720846-37.591278 50.463917-127.449699 12.015051-175.853289-22.031408-27.735168-61.802758-35.96767-95.366714-33.931997-36.886893 2.238184-73.914662 15.197111-101.861145 39.750219-10.822879 9.507439-9.685297 27.670012 0 37.355308 10.667914 10.667914 26.548279 9.495113 37.355309 0a86.556616 86.556616 0 0 1 3.116904-2.673142c-2.61503 1.965235-2.72421 2.060327-0.324017 0.290559 2.347364-1.716939 4.814473-3.261304 7.290387-4.782775 2.56044-1.577823 5.223016-2.984832 7.887353-4.372472a134.185383 134.185383 0 0 1 4.141786-2.021585c6.936433-3.315893-4.911326 1.861338 2.312144-1.035446 6.71103-2.690752 13.65979-4.751078 20.664901-6.503237 3.155646-0.788911 6.348272-1.414053 9.54442-2.012781 1.602476-0.288798 3.206714-0.551181 4.816234-0.790672-5.98023 0.93331 1.947625-0.121506 2.639683-0.186662 6.36412-0.591684 12.765221-0.625142 19.146951-0.352193 1.155192 0.049307 11.009541 1.112929 4.574982 0.213077 3.747329 0.524767 7.44183 1.357702 11.108155 2.283969 2.858043 0.723756 5.649169 1.68172 8.420925 2.678425 2.814019 1.100602 2.704839 1.054817-0.324017-0.139116 1.944103 0.884003 3.807202 1.931776 5.665018 2.98131 1.28022 0.721995 8.653372 6.170414 3.014769 1.669393 2.324471 1.857816 4.414734 3.995625 6.43808 6.166892 0.818848 0.901613 1.613042 1.826119 2.382583 2.769995-2.215291-2.932003-2.472392-3.229606-0.771301-0.894569 1.48097 2.063849 2.787604 4.245682 4.073107 6.432798 1.318961 2.245228 2.46887 4.587309 3.597648 6.932911 1.202738 2.676664 1.107646 2.398432-0.281755-0.829413 0.771302 1.868382 1.435185 3.779027 2.10259 5.686149 2.040956 5.839353 3.462053 11.884739 4.592592 17.958301 0.243013 1.366507 0.463133 2.738298 0.662122 4.111849-0.477221-3.580038-0.544138-3.851226-0.20075-0.813565 0.353954 3.447966 0.484265 6.91178 0.556465 10.373833 0.05459 2.747102-0.049307 5.492444-0.18138 8.236024a116.862789 116.862789 0 0 1-0.302885 4.071347c-0.574074 6.904736 0.982617-5.805895-0.093331 0.973813-0.917462 5.783003-2.495285 11.437455-4.488695 16.93342-1.072426 2.722449-0.912179 2.352647 0.484265-1.105885a69.114277 69.114277 0 0 1-1.64474 3.317655c-1.382356 2.696034-3.049988 5.228299-4.800385 7.697169 4.27914-6.036581-0.470177 0.156726-1.667632 1.37179-0.84174 0.824131-1.708134 1.616564-2.604464 2.380822 5.226538-4.611962 1.0601-0.875199-0.357476 0.049307-12.041465 7.841568-17.019708 23.264083-9.477503 36.140244 7.013916 11.962222 24.067082 17.338442 36.143766 9.47222z" p-id="79591" fill="#bfbfbf"></path></svg>