<?xml version="1.0" standalone="no"?><!DOCTYPE svg PUBLIC "-//W3C//DTD SVG 1.1//EN" "http://www.w3.org/Graphics/SVG/1.1/DTD/svg11.dtd"><svg t="1703149127312" class="icon" viewBox="0 0 1024 1024" version="1.1" xmlns="http://www.w3.org/2000/svg" p-id="49852" id="mx_n_1703149127313" xmlns:xlink="http://www.w3.org/1999/xlink" width="32" height="32"><path d="M859.1 249.49H567.78c-29.12 0-55.95-15.87-70.1-41.47l-21.32-38.57c-14.15-25.6-40.98-41.47-70.1-41.47H168.01c-44.29 0-80.2 36.1-80.2 80.64v605.21c0 44.54 35.91 80.64 80.2 80.64h691.1c44.29 0 80.2-36.1 80.2-80.64V330.14c-0.01-44.54-35.92-80.65-80.21-80.65zM676.56 541.42l-64.22 62.95c-2.84 2.79-4.14 6.8-3.47 10.73l15.16 88.89c1.14 6.67-1.54 13.29-6.99 17.27-5.45 3.98-12.53 4.5-18.49 1.34l-79.39-41.97a12.035 12.035 0 0 0-11.22 0l-79.39 41.97c-2.59 1.37-5.4 2.05-8.19 2.05-3.63 0-7.23-1.14-10.3-3.39-5.45-3.98-8.12-10.59-6.99-17.27l15.16-88.89c0.67-3.93-0.62-7.95-3.47-10.73l-64.22-62.95c-4.82-4.72-6.52-11.66-4.44-18.1 2.08-6.44 7.51-11.04 14.17-12.02l88.76-12.97a12.05 12.05 0 0 0 9.08-6.63l39.7-80.87c2.98-6.07 9.01-9.84 15.74-9.84s12.77 3.77 15.74 9.84l39.69 80.87a12.05 12.05 0 0 0 9.08 6.63l88.76 12.97c6.66 0.97 12.09 5.58 14.17 12.02 2.09 6.44 0.39 13.37-4.43 18.1z" fill="#666666" p-id="49853"></path></svg>