<?xml version="1.0" standalone="no"?><!DOCTYPE svg PUBLIC "-//W3C//DTD SVG 1.1//EN" "http://www.w3.org/Graphics/SVG/1.1/DTD/svg11.dtd"><svg t="1703156514356" class="icon" viewBox="0 0 1024 1024" version="1.1" xmlns="http://www.w3.org/2000/svg" p-id="57275" xmlns:xlink="http://www.w3.org/1999/xlink" width="32" height="32"><path d="M978.139 494.139c-9.868 0-17.97 7.994-17.97 17.97 0 247.153-201.017 448.169-448.169 448.169-247.168 0-448.2-201.016-448.2-448.169C63.8 264.957 264.832 63.925 512 63.925c9.852 0 17.955-7.994 17.955-17.955C529.955 35.994 521.96 28 512 28 245.129 28 28 245.129 28 512s217.129 484 484 484c266.856 0 484-217.129 484-484 0-9.742-8.01-17.861-17.861-17.861m-39.11-168.167c-8.994 3.95-19.173-0.093-23.451-8.868a464.95 464.95 0 0 0-18.954-35.05c-44.575-74.271-111.195-135.302-188.963-173.21-8.775-4.263-12.725-14.458-8.884-23.326 4.044-9.212 15.004-13.474 24.09-9.102 85.138 41.202 155.459 105.605 204.436 187.23 7.448 12.49 14.458 25.308 20.812 38.454 4.372 8.978 0.11 19.829-9.086 23.872" fill="#424242" p-id="57276"></path><path d="M579.298 283c-54.247 0-99.277 40.754-106.523 93.584-0.652 1.885-1.102 3.88-1.102 6.094V645.95l-100.16-100.227c-7.014-7.099-18.404-6.989-25.293 0.094-7.03 7.098-6.92 18.61 0.093 25.598L477.6 702.77c6.998 6.973 18.294 6.973 25.308 0l130.077-131.244c7.014-7.098 7.014-18.5 0-25.583a17.746 17.746 0 0 0-25.323 0L507.517 646.94V391.755c0-39.984 32.213-72.54 71.78-72.54 39.553 0 71.766 32.556 71.766 72.54 0 9.972 8.007 18.17 17.969 18.17 9.868 0 17.968-8.088 17.968-18.17C686.798 331.842 638.572 283 579.298 283" fill="#424242" p-id="57277"></path></svg>