<?xml version="1.0" standalone="no"?><!DOCTYPE svg PUBLIC "-//W3C//DTD SVG 1.1//EN" "http://www.w3.org/Graphics/SVG/1.1/DTD/svg11.dtd"><svg t="1704383036160" class="icon" viewBox="0 0 1024 1024" version="1.1" xmlns="http://www.w3.org/2000/svg" p-id="33923" xmlns:xlink="http://www.w3.org/1999/xlink" width="32" height="32"><path d="M636 730m-62 0a62 62 0 1 0 124 0 62 62 0 1 0-124 0ZM886.486 274.428c8.903-13.695 18.069-28.535 26.404-43.408 23.016-41.063 34.157-71.801 35.063-96.731 0.71-19.549-6.929-38.578-20.96-52.208-14.037-13.634-33.282-20.717-52.801-19.431-26.227 1.724-59.299 13.733-101.106 36.712-19.359 10.642-26.428 34.961-15.786 54.321 10.642 19.36 34.962 26.43 54.321 15.787 25.19-13.846 42.252-20.64 53.257-23.952-7.844 23.588-30.584 66.028-70.568 122.11C752.693 326 676.37 421.871 549.105 547.109 425.24 669.015 327.848 744.262 267.958 785.92c-35.329 24.574-66.712 43.891-93.281 57.413-16.069 8.179-27.455 12.713-35.359 15.206 5.265-16.349 18.538-46.255 51.87-96.017 0.095-0.143 0.189-0.285 0.283-0.429 7.549-11.589 13.146-28.653 13.611-41.499 0.28-7.731-1.688-15.379-5.667-22.015-33.767-56.325-51.616-120.98-51.616-186.979 0-200.683 163.214-363.95 363.831-363.95 53.811 0 105.507 11.425 153.654 33.958 20.01 9.363 43.819 0.734 53.184-19.274s0.735-43.82-19.273-53.184c-58.841-27.538-121.947-41.5-187.564-41.5-244.729 0-443.831 199.155-443.831 443.95 0 74.073 18.456 146.792 53.526 211.501C80.469 784.881 59.17 831.792 56.246 866.397c-1.645 19.474 5.061 38.833 18.396 53.11 13.05 13.977 31.5 21.992 50.621 21.992 0.404 0 0.811-0.003 1.118-0.009 22.411-0.361 49.289-8.896 84.585-26.862 16.982-8.643 35.505-19.252 55.381-31.702 31.709 21.119 65.894 38.008 101.947 50.334C414.367 949.013 462.625 957 511.728 957c59.899 0 118.027-11.76 172.771-34.952 52.851-22.391 100.306-54.436 141.047-95.245 40.737-40.805 72.725-88.33 95.074-141.257 23.146-54.812 34.881-113.014 34.881-172.987C955.5 427.33 931.716 345.573 886.486 274.428zM768.93 770.281C700.225 839.1 608.882 877 511.728 877c-61.164 0-119.93-14.932-172.629-43.527 62.953-45.794 154.379-119.371 266.121-229.345 110.26-108.504 183.896-196.243 230.416-257.686 26.199 51.073 39.865 107.59 39.865 166.116C875.5 609.917 837.652 701.444 768.93 770.281zM468 411c54.037 0 98-43.962 98-98s-43.963-98-98-98c-54.038 0-98 43.962-98 98S413.962 411 468 411zM468 275c20.953 0 38 17.047 38 38s-17.047 38-38 38-38-17.047-38-38S447.047 275 468 275zM308 448.5c-43.285 0-78.5 35.215-78.5 78.5s35.215 78.5 78.5 78.5 78.5-35.215 78.5-78.5S351.285 448.5 308 448.5zM308 545.5c-10.201 0-18.5-8.299-18.5-18.5s8.299-18.5 18.5-18.5 18.5 8.299 18.5 18.5S318.201 545.5 308 545.5z" fill="#e6e6e6" p-id="33924"></path></svg>