<svg version="1.1" id="图层_1" xmlns="http://www.w3.org/2000/svg" xmlns:xlink="http://www.w3.org/1999/xlink" x="0px" y="0px" width="143.13427389868" height="142.62618190819" viewBox="0 0 197.1999969482422 196.49998474121094" enable-background="new 0 0 197 196.5" xml:space="preserve" fill="currentColor" class="style-removed" preserveAspectRatio="none" data-parent="shape_nyRZ3CSQ2D">
<g>
	<path fill="#F40E0E" d="M114.2,24.3c-17.1,0-32.5,7.4-43.1,19.2l20.4,20.4c5.3-6.6,13.4-10.9,22.6-10.9c15.9,0,28.9,12.9,28.9,28.9
		c0,5.5-1.5,10.5-4.1,14.9l10.7,10.9c2.6,2.7,2.6,7,0,9.7c-1.4,1.4-3.2,2.2-5,2.2c-1.8,0-3.6-0.7-5-2.1l-10.7-10.7
		c-4.3,2.6-9.3,4-14.7,4c-9.1,0-17.3-4.3-22.6-10.9l-21,21c10.6,12.1,26.3,19.8,43.7,19.8c32.1,0,58.1-26,58.1-58.1
		C172.3,50.3,146.3,24.3,114.2,24.3z" stroke-width="0"></path>
    <circle fill="#F40E0E" cx="66.6" cy="181.9" r="14.6" stroke-width="0"></circle>
    <circle fill="#F40E0E" cx="37.7" cy="171.9" r="7.1" stroke-width="0"></circle>
    <path fill="#F40E0E" d="M112.2,0c-1.2,0-2.5,0-3.7,0.1c-40.6,1.7-73.8,32.1-80,71.4c-0.2,1.5-0.4,3-0.6,4.5c-2.5,0.9-5,2-7.2,3.4
		C8.3,86.5,0,99.9,0,115.3c0,23,18.7,41.7,41.7,41.7c7,0,13.5-1.7,19.3-4.7c7.6,5.8,16.2,10.3,25.5,13.2
		c0.3,14.8,12.4,26.7,27.3,26.7c15.1,0,27.3-12.2,27.3-27.3c0-0.2,0-0.3,0-0.5c30.3-10.9,52.6-38.7,55.7-72c0.2-2.5,0.4-5.1,0.4-7.8
		C197,37.9,159,0,112.2,0z M114.3,146.9c-19.2,0-36.5-8.4-48.3-21.8c-10.1-11.4-16.3-26.4-16.3-42.8c0-16.7,6.4-32,16.8-43.4
		c11.8-13,28.8-21.1,47.7-21.1c35.6,0,64.5,28.9,64.5,64.5S149.9,146.9,114.3,146.9z" stroke-width="0"></path>
    <path fill="#F40E0E" d="M107.4,79.8c-0.8,0.3-1.6,0.5-2.4,0.5c-2,0-3.7-0.8-5-2.2c-0.4,1.3-0.6,2.6-0.6,4c0,2.8,0.8,5.4,2.1,7.6
		c2.6,4.2,7.2,7,12.4,7c8,0,14.6-6.5,14.6-14.6s-6.5-14.6-14.6-14.6c-1.6,0-3.2,0.3-4.7,0.8c1.5,1.2,2.4,3.1,2.4,5.2
		C111.8,76.3,110,78.8,107.4,79.8z" stroke-width="0"></path>
</g>
</svg>