<?xml version="1.0" standalone="no"?><!DOCTYPE svg PUBLIC "-//W3C//DTD SVG 1.1//EN" "http://www.w3.org/Graphics/SVG/1.1/DTD/svg11.dtd">
<svg t="1704384688307"
     class="icon"
     viewBox="0 0 1378 1024"
     version="1.1"
     xmlns="http://www.w3.org/2000/svg"
     p-id="86086"
     xmlns:xlink="http://www.w3.org/1999/xlink"
     width="32"
     height="32">
    <path
        d="M201.924923 0l79.005539 83.101538a628.696615 628.696615 0 0 0-10.31877 846.769231l10.279385 11.027693L201.885538 1024A750.158769 750.158769 0 0 1 190.739692 12.209231L201.924923 0z m974.651077 0a750.237538 750.237538 0 0 1 11.106462 1011.790769l-11.145847 12.209231-78.76923-83.101538a628.302769 628.302769 0 0 0 10.318769-846.375385l-10.279385-11.027692 78.769231-83.495385z m-468.676923 296.566154a235.953231 235.953231 0 0 1 24.457846 468.676923L630.153846 872.763077l-79.005538-83.101539 133.592615-140.603076h23.118769a117.720615 117.720615 0 1 0-111.773538-117.366154 121.777231 121.777231 0 0 0 24.064 72.861538l-87.591385 72.861539a242.018462 242.018462 0 0 1-48.246154-145.723077 229.494154 229.494154 0 0 1 223.547077-235.126154z m311.138461-139.027692a530.589538 530.589538 0 0 1 9.097847 698.683076l-9.097847 10.24-80.147692-81.92a408.891077 408.891077 0 0 0 8.467692-535.630769l-8.467692-9.452307L1018.998154 157.538462zM359.345231 157.538462l80.108307 81.92a408.969846 408.969846 0 0 0-8.428307 535.630769l8.428307 9.452307L359.384615 866.461538a531.062154 531.062154 0 0 1-9.13723-699.076923L359.345231 157.538462z"
        fill="#e6e6e6"
        p-id="86087"></path>
</svg>