<?xml version="1.0" standalone="no"?><!DOCTYPE svg PUBLIC "-//W3C//DTD SVG 1.1//EN" "http://www.w3.org/Graphics/SVG/1.1/DTD/svg11.dtd">
<svg t="1704384328374"
     class="icon"
     viewBox="0 0 1027 1024"
     version="1.1"
     xmlns="http://www.w3.org/2000/svg"
     p-id="60752"
     xmlns:xlink="http://www.w3.org/1999/xlink"
     width="32.09375"
     fill="currentColor"
     height="32">
    <path
        d="M513.37500664 533.09855058c-131.96037832 0-239.31165674-105.66903604-239.31165674-235.5543123S381.41462833 62.05036661 513.37500664 62.05036661s239.33180391 105.66903604 239.33180391 235.54423828-107.36135244 235.5039457-239.33180391 235.5039457z m0-411.35374071c-98.48676445 0-178.6098832 78.86395459-178.60988232 175.79942841s80.12311787 175.80950244 178.60988232 175.80950245 178.63002949-78.88410088 178.63003037-175.80950245S611.87184512 121.74480987 513.37500664 121.74480987z"
        p-id="60753"></path>
    <path
        d="M929.49342471 962c-19.47171094 0-35.25658945-13.18596416-35.25659033-29.44428926 0-220.50478477-170.84335957-399.91045957-380.85175371-399.91045957s-380.87190088 179.40567481-380.87190176 399.91045957c0 16.25832422-15.78487852 29.44428926-35.25658946 29.44428926s-35.25658945-13.18596416-35.25658945-29.44428925c0-253.01136006 202.47355723-458.76881777 451.37500664-458.7688169s451.38508067 205.75745684 451.38508067 458.76881689c0 16.25832422-15.79495254 29.44428926-35.2666626 29.44428926z"
        p-id="60754"></path>
</svg>