<?xml version="1.0" standalone="no"?><!DOCTYPE svg PUBLIC "-//W3C//DTD SVG 1.1//EN" "http://www.w3.org/Graphics/SVG/1.1/DTD/svg11.dtd"><svg t="1704384483489" class="icon" viewBox="0 0 1104 1024" version="1.1" xmlns="http://www.w3.org/2000/svg" p-id="72116" xmlns:xlink="http://www.w3.org/1999/xlink" width="34.5" height="32"><path d="M512.997053 14.389895c270.255158 0 490.603789 214.959158 498.526315 483.705263l0.188632 9.054316-67.368421 0.808421c-2.748632-236.058947-194.964211-426.199579-431.346526-426.199579C274.863158 81.758316 81.758316 274.863158 81.758316 513.077895c0 238.160842 193.104842 431.265684 431.238737 431.265684 203.290947 0 377.370947-141.581474 420.971789-336.734316l1.913263-9.027368 66.048 13.285052c-46.457263 231.100632-250.287158 399.845053-488.933052 399.845053C237.648842 1011.712 14.389895 788.48 14.389895 513.077895 14.389895 237.675789 237.675789 14.389895 512.997053 14.389895z" fill="#e6e6e6" p-id="72117"></path><path d="M662.905263 845.123368l139.614316-77.743157a33.684211 33.684211 0 0 0 13.123368-45.67579l-46.780631-85.045895a33.684211 33.684211 0 0 0-45.891369-13.20421l-139.614315 77.770105a33.684211 33.684211 0 0 0-13.123369 45.67579l46.780632 85.018947a33.684211 33.684211 0 0 0 45.918316 13.20421z m-3.179789-75.290947l-14.282106-26.031158 80.734316-45.002105 14.282105 26.031158-80.734315 45.002105z" fill="#e6e6e6" p-id="72118"></path><path d="M1067.843368 483.328l31.717053 59.445895-317.035789 169.094737-31.690106-59.445895zM377.532632 239.912421l28.025263 61.278316c-68.823579 31.447579-116.682105 93.588211-126.841263 165.376l-0.916211 7.464421-67.018105-6.979369c10.024421-96.309895 70.682947-179.954526 158.881684-223.393684l7.868632-3.745684z" fill="#e6e6e6" p-id="72119"></path><path d="M330.886737 149.746526l28.267789 61.170527c-100.837053 46.592-170.765474 138.293895-184.939789 244.170105l-1.077895 8.865684-66.991158-6.952421c13.554526-130.694737 96.094316-244.304842 216.279579-303.211789l8.461474-4.042106zM502.433684 310.298947a192.188632 192.188632 0 0 0-192.134737 192.188632 192.134737 192.134737 0 0 0 192.134737 192.188632 192.188632 192.188632 0 1 0 0-384.377264z m0 67.368421a124.820211 124.820211 0 1 1 0.10779 249.640421 124.820211 124.820211 0 0 1-0.10779-249.640421z" fill="#e6e6e6" p-id="72120"></path><path d="M502.487579 458.24a44.247579 44.247579 0 1 0 0 88.495158 44.247579 44.247579 0 0 0 0-88.495158z m0 21.126737a23.120842 23.120842 0 1 1 0 46.241684 23.120842 23.120842 0 0 1 0-46.241684z" fill="#e6e6e6" p-id="72121"></path></svg>