<?xml version="1.0" standalone="no"?><!DOCTYPE svg PUBLIC "-//W3C//DTD SVG 1.1//EN" "http://www.w3.org/Graphics/SVG/1.1/DTD/svg11.dtd">
<svg t="1705255306023"
     class="icon"
     viewBox="0 0 1024 1024"
     version="1.1"
     xmlns="http://www.w3.org/2000/svg"
     p-id="5274"
     xmlns:xlink="http://www.w3.org/1999/xlink"
     fill="currentColor"
     width="32"
     height="32">
    <path
        d="M760.0128 314.4704a38.4 38.4 0 0 0 54.272 54.272l85.6576-85.6064a38.4 38.4 0 0 0 0-54.272l-85.6064-85.6576a38.4 38.4 0 1 0-54.272 54.272L818.432 256l-58.4704 58.4704zM760.0128 814.9504a38.4 38.4 0 0 0 54.272 54.3232l85.6576-85.6064a38.4 38.4 0 0 0 0-54.3232l-85.6064-85.6064a38.4 38.4 0 1 0-54.272 54.272l58.4192 58.4704-58.4704 58.4704z"
        fill="#e6e6e6"
        p-id="5275"></path>
    <path
        d="M153.6 294.4h100.608a166.4 166.4 0 0 1 151.4496 97.4848l118.6304 260.5568a243.2 243.2 0 0 0 221.3376 142.4384h107.3664a38.4 38.4 0 0 0 0-76.8h-107.3664a166.4 166.4 0 0 1-151.4496-97.4336l-118.5792-260.608A243.2 243.2 0 0 0 254.208 217.6H153.6a38.4 38.4 0 0 0 0 76.8z"
        fill="#e6e6e6"
        p-id="5276"></path>
    <path
        d="M153.6 718.08h100.608a166.4 166.4 0 0 0 151.4496-97.4336l118.6304-260.608a243.2 243.2 0 0 1 221.3376-142.4384h107.3664a38.4 38.4 0 0 1 0 76.8h-107.3664a166.4 166.4 0 0 0-151.4496 97.4848l-118.5792 260.5568a243.2 243.2 0 0 1-221.3888 142.4384H153.6a38.4 38.4 0 0 1 0-76.8z"
        fill="#e6e6e6"
        p-id="5277"></path>
</svg>