<?xml version="1.0" standalone="no"?><!DOCTYPE svg PUBLIC "-//W3C//DTD SVG 1.1//EN" "http://www.w3.org/Graphics/SVG/1.1/DTD/svg11.dtd"><svg t="1703157063545" class="icon" viewBox="0 0 1024 1024" version="1.1" xmlns="http://www.w3.org/2000/svg" p-id="67507" xmlns:xlink="http://www.w3.org/1999/xlink" width="32" height="32"><path d="M988.3 488.2c-85.3 0-154.8-69.4-154.8-154.8 0-19.7-16-35.7-35.7-35.7-19.7 0-35.7 16-35.7 35.7v233.3c-37.9-34-88-54.7-142.9-54.7-118.2 0-214.3 96.1-214.3 214.3S501 940.7 619.2 940.7c118.2 0 214.3-96.1 214.3-214.3 0-8.6-0.5-17.1-1.5-25.4 1-3.3 1.5-6.7 1.5-10.3V498.2c40.5 38.1 95 61.4 154.8 61.4 19.7 0 35.7-16 35.7-35.7 0-19.7-16-35.7-35.7-35.7z m-369.1 381c-78.8 0-142.9-64.1-142.9-142.9s64.1-142.9 142.9-142.9S762 647.5 762 726.3s-64 142.9-142.8 142.9zM35.7 154.8h762c19.7 0 35.7-16 35.7-35.7s-16-35.7-35.7-35.7h-762C16 83.3 0 99.3 0 119.1s16 35.7 35.7 35.7zM35.7 369.1h619.2c19.7 0 35.7-16 35.7-35.7s-16-35.7-35.7-35.7H35.7C16 297.7 0 313.7 0 333.4s16 35.7 35.7 35.7zM297.7 512h-262C16 512 0 528 0 547.7c0 19.7 16 35.7 35.7 35.7h262c19.7 0 35.7-16 35.7-35.7 0-19.7-16-35.7-35.7-35.7zM297.7 726.3h-262C16 726.3 0 742.3 0 762s16 35.7 35.7 35.7h262c19.7 0 35.7-16 35.7-35.7s-16-35.7-35.7-35.7z" fill="#515151" p-id="67508"></path></svg>