<?xml version="1.0" standalone="no"?><!DOCTYPE svg PUBLIC "-//W3C//DTD SVG 1.1//EN" "http://www.w3.org/Graphics/SVG/1.1/DTD/svg11.dtd"><svg t="1714032736884" class="icon" viewBox="0 0 1024 1024" version="1.1" xmlns="http://www.w3.org/2000/svg" p-id="2527" xmlns:xlink="http://www.w3.org/1999/xlink" width="200" height="200"><path d="M195.312 699.152l-47.424 47.92c-10.528 10.544-10.384 27.584 0.16 38.064l30.752 30.416c10.512 10.448 27.584 10.384 38.064-0.192l47.456-47.872-69.008-68.336zM620 485.12l67.6-57.872-149.968-148.576-57.296 68.112zM586.896 149.136a163.838 163.838 0 0 0-29.232 105.76l-1.408 1.68 153.248 151.872 1.632-1.424c36.88 2.288 74.224-7.904 105.472-30.272L586.896 149.136zM838.688 358.128c63.216-64.528 62.592-168.096-1.68-231.68-64.288-63.68-167.776-63.36-231.68 0.416l233.36 231.264zM461.808 368.848L210.144 668l91.12 90.336 296.864-254.432z" p-id="2528"></path><path d="M163.632 926.24c-3.584-3.552-7.104-7.424-10.56-11.584-42.592-51.664-8.976-131.728-7.664-134.64l39.808 29.872c-0.192 0.448-19.296 45.664 4.512 74.528 33.232 40.352 58.976 23.296 67.424 17.664 2.256-1.552 6-4.8 11.056-9.088C510.032 688 710.72 791.504 836.4 914.416l-33.216 33.936c-244.624-239.2-440.016-73.6-504.224-19.088-7.088 5.968-11.744 9.936-15.712 12.512-39.744 26.208-83.52 20.176-119.616-15.536" p-id="2529"></path></svg>