<?xml version="1.0" standalone="no"?><!DOCTYPE svg PUBLIC "-//W3C//DTD SVG 1.1//EN" "http://www.w3.org/Graphics/SVG/1.1/DTD/svg11.dtd"><svg t="1703142962657" class="icon" viewBox="0 0 1024 1024" version="1.1" xmlns="http://www.w3.org/2000/svg" p-id="15323" xmlns:xlink="http://www.w3.org/1999/xlink" width="32" height="32" fill="currentColor"><path d="M386.9952 729.90336c4.14976 0 8.29824-1.07392 12.01664-3.22048l321.2288-185.46304c7.4368-4.29312 12.01664-12.22656 12.01664-20.8128s-4.57984-16.52096-12.01664-20.81408l-321.2288-185.46176c-7.4368-4.29312-16.59648-4.29312-24.032 0-7.43552 4.29312-12.01664 12.22656-12.01664 20.8128l0 370.9248c0 8.58624 4.58112 16.51968 12.01664 20.8128C378.69696 728.82944 382.84672 729.90336 386.9952 729.90336zM411.02976 376.57344 660.16 520.40832 411.02848 664.24576 411.02976 376.57344zM782.01216 241.98656c-72.28928-72.28928-168.40192-112.10112-270.63552-112.10112-102.2336 0-198.34624 39.81184-270.6368 112.10112S128.64 410.38976 128.64 512.62336c0 48.6336 9.0048 96.02816 26.7648 140.8704 4.88704 12.34048 18.85056 18.38336 31.1936 13.49504 12.34048-4.88832 18.38208-18.85312 13.49376-31.1936-15.51872-39.18336-23.38688-80.62464-23.38688-123.17184 0-184.53888 150.13248-334.67136 334.67136-334.67136 184.53888 0 334.67264 150.13376 334.67264 334.67136 0 184.5376-150.13376 334.67136-334.67264 334.67136-71.48416 0-139.67616-22.21312-197.2032-64.24192-10.71744-7.82848-25.75488-5.48864-33.58336 5.2288-7.82976 10.71744-5.48864 25.7536 5.22752 33.58208 65.81376 48.08192 143.81184 73.49632 225.55776 73.49632 102.23232 0 198.34624-39.81184 270.63552-112.10112 72.29184-72.29056 112.1024-168.4032 112.1024-270.63552C894.11456 410.38976 854.304 314.27584 782.01216 241.98656z" p-id="15324"></path></svg>