<?xml version="1.0" standalone="no"?><!DOCTYPE svg PUBLIC "-//W3C//DTD SVG 1.1//EN" "http://www.w3.org/Graphics/SVG/1.1/DTD/svg11.dtd"><svg t="1703148436645" class="icon" viewBox="0 0 1024 1024" version="1.1" xmlns="http://www.w3.org/2000/svg" p-id="17367" xmlns:xlink="http://www.w3.org/1999/xlink" width="32" height="32"><path d="M919.272727 416.581818L607.418182 79.127273c-11.636364-11.636364-32.581818-11.636364-44.218182 0-6.981818 6.981818-9.309091 16.290909-9.309091 25.6v181.527272c-258.327273 0-465.454545 207.127273-465.454545 463.127273 0 62.836364 13.963636 125.672727 39.563636 183.854546 37.236364-193.163636 221.090909-339.781818 425.890909-339.781819v181.527273c-2.327273 9.309091 2.327273 18.618182 9.309091 25.6 4.654545 6.981818 13.963636 9.309091 23.272727 9.309091s18.618182-4.654545 23.272728-11.636364L919.272727 465.454545c6.981818-6.981818 9.309091-13.963636 9.309091-23.272727s-4.654545-18.618182-9.309091-25.6z" p-id="17368" fill="#707070"></path></svg>